<svg width="81" height="74" viewBox="0 0 81 74" fill="none" xmlns="http://www.w3.org/2000/svg">
<path fill-rule="evenodd" clip-rule="evenodd" d="M11.3864 30.8979C11.3864 29.6342 12.5 28.6097 13.8737 28.6097L31.2847 28.6097C32.6584 28.6097 33.772 29.6342 33.772 30.8979C33.772 32.1616 32.6584 33.1861 31.2847 33.1861L13.8737 33.1861C12.5 33.1861 11.3864 32.1616 11.3864 30.8979Z" fill="white"/>
<path fill-rule="evenodd" clip-rule="evenodd" d="M33.3051 15.4006C32.0239 14.9136 30.6206 14.7646 29.2525 14.9702C27.8844 15.1758 26.6056 15.728 25.5595 16.5648C24.5134 17.4016 23.7414 18.4899 23.3299 19.7077C22.9223 20.9145 21.5283 21.5888 20.2165 21.2138C18.9047 20.8387 18.1718 19.5563 18.5795 18.3495C19.2652 16.3198 20.5519 14.5059 22.2954 13.1113C24.0389 11.7166 26.1702 10.7964 28.4504 10.4537C30.7306 10.111 33.0695 10.3594 35.2048 11.171C37.3401 11.9827 39.1874 13.3256 40.5396 15.049C41.8918 16.7724 42.6954 18.8083 42.8603 20.9284C43.0252 23.0485 42.5449 25.1689 41.4732 27.0519C40.4016 28.9349 38.7809 30.5061 36.793 31.5892C34.8051 32.6723 32.5285 33.2246 30.2185 33.184C28.8451 33.1599 27.7529 32.1161 27.7791 30.8526C27.8053 29.5891 28.9399 28.5843 30.3133 28.6084C31.6993 28.6327 33.0653 28.3014 34.258 27.6515C35.4508 27.0017 36.4232 26.059 37.0662 24.9292C37.7092 23.7994 37.9974 22.5271 37.8984 21.2551C37.7995 19.983 37.3173 18.7615 36.506 17.7274C35.6947 16.6933 34.5863 15.8876 33.3051 15.4006Z" fill="white"/>
<path fill-rule="evenodd" clip-rule="evenodd" d="M11.3864 41.5763C11.3864 40.3126 12.5 39.2881 13.8737 39.2881L57.8157 39.2881C59.1894 39.2881 60.303 40.3126 60.303 41.5763C60.303 42.84 59.1894 43.8645 57.8157 43.8645L13.8737 43.8645C12.5 43.8645 11.3864 42.84 11.3864 41.5763Z" fill="white"/>
<path fill-rule="evenodd" clip-rule="evenodd" d="M54.4994 41.5763C54.4994 40.3126 55.613 39.2881 56.9866 39.2881C59.2971 39.2881 61.5618 39.8802 63.5269 40.998C65.492 42.1157 67.0798 43.715 68.1123 45.6165C69.1447 47.518 69.581 49.6464 69.3722 51.7632C69.1634 53.88 68.3177 55.9015 66.93 57.6009C65.5424 59.3003 63.6675 60.6105 61.5158 61.3845C59.3641 62.1586 57.0205 62.366 54.7478 61.9833C52.4751 61.6007 50.3633 60.6432 48.649 59.2182C46.9347 57.7932 45.6858 55.9571 45.0423 53.9157C44.6597 52.702 45.4191 51.4327 46.7384 51.0807C48.0578 50.7288 49.4375 51.4274 49.8201 52.6411C50.2061 53.8659 50.9555 54.9676 51.9841 55.8226C53.0126 56.6776 54.2797 57.2521 55.6433 57.4817C57.0069 57.7112 58.4131 57.5868 59.7041 57.1224C60.9952 56.658 62.1201 55.8718 62.9527 54.8522C63.7853 53.8325 64.2927 52.6197 64.418 51.3496C64.5433 50.0795 64.2815 48.8024 63.662 47.6616C63.0426 46.5207 62.0899 45.5611 60.9108 44.8904C59.7317 44.2198 58.3729 43.8645 56.9866 43.8645C55.613 43.8645 54.4994 42.84 54.4994 41.5763Z" fill="white"/>
<path d="M53.6702 15.6432C53.6702 17.3282 52.1854 18.6942 50.3539 18.6942C48.5223 18.6942 47.0375 17.3282 47.0375 15.6432C47.0375 13.9582 48.5223 12.5923 50.3539 12.5923C52.1854 12.5923 53.6702 13.9582 53.6702 15.6432Z" fill="white"/>
<path d="M53.6702 27.8471C53.6702 29.5321 52.1854 30.898 50.3539 30.898C48.5223 30.898 47.0375 29.5321 47.0375 27.8471C47.0375 26.1621 48.5223 24.7961 50.3539 24.7961C52.1854 24.7961 53.6702 26.1621 53.6702 27.8471Z" fill="white"/>
<path d="M60.303 21.745C60.303 23.43 58.8182 24.796 56.9866 24.796C55.155 24.796 53.6702 23.43 53.6702 21.745C53.6702 20.0601 55.155 18.6941 56.9866 18.6941C58.8182 18.6941 60.303 20.0601 60.303 21.745Z" fill="white"/>
<path d="M66.9358 15.6432C66.9358 17.3282 65.451 18.6942 63.6194 18.6942C61.7878 18.6942 60.303 17.3282 60.303 15.6432C60.303 13.9582 61.7878 12.5923 63.6194 12.5923C65.451 12.5923 66.9358 13.9582 66.9358 15.6432Z" fill="white"/>
<path d="M66.9358 27.8471C66.9358 29.5321 65.451 30.898 63.6194 30.898C61.7878 30.898 60.303 29.5321 60.303 27.8471C60.303 26.1621 61.7878 24.7961 63.6194 24.7961C65.451 24.7961 66.9358 26.1621 66.9358 27.8471Z" fill="white"/>
<path fill-rule="evenodd" clip-rule="evenodd" d="M11.3864 50.7291C11.3864 49.4654 12.5 48.4409 13.8737 48.4409H22.9937C24.3674 48.4409 25.481 49.4654 25.481 50.7291C25.481 51.9929 24.3674 53.0173 22.9937 53.0173H13.8737C12.5 53.0173 11.3864 51.9929 11.3864 50.7291Z" fill="white"/>
</svg>
