<svg width="48" height="48" viewBox="0 0 48 48" fill="none" xmlns="http://www.w3.org/2000/svg">
<path d="M24 19.9998C30.6274 19.9998 36 25.3724 36 31.9998C36 34.1856 35.4148 36.2352 34.3942 37.9998H40C41.1046 37.9998 42 38.8952 42 39.9998C42 41.1044 41.1046 41.9998 40 41.9998H8C6.89544 41.9998 6 41.1044 6 39.9998C6 38.8952 6.89544 37.9998 8 37.9998H13.6062C12.5853 36.2352 12 34.1858 12 31.9998C12 25.3724 17.3726 19.9998 24 19.9998ZM24 23.9998C19.5817 23.9998 16 27.5814 16 31.9998C16 34.2286 16.9103 36.2445 18.3847 37.6972L18.7091 37.9998H29.2918C30.9554 36.5314 32 34.3878 32 31.9998C32 27.5814 28.4182 23.9998 24 23.9998ZM42 29.9998C43.1046 29.9998 44 30.8952 44 31.9998C44 33.1044 43.1046 33.9998 42 33.9998H40C38.8954 33.9998 38 33.1044 38 31.9998C38 30.8952 38.8954 29.9998 40 29.9998H42ZM8 29.9998C9.10456 29.9998 10 30.8952 10 31.9998C10 33.1044 9.10456 33.9998 8 33.9998H6C4.89544 33.9998 4 33.1044 4 31.9998C4 30.8952 4.89544 29.9998 6 29.9998H8ZM9.85782 17.8575C10.5788 17.1365 11.7132 17.0811 12.4978 17.6911L12.6862 17.8575L14.1005 19.2717C14.8815 20.0528 14.8815 21.3192 14.1005 22.1002C13.3795 22.8211 12.245 22.8766 11.4604 22.2666L11.272 22.1002L9.85782 20.686C9.07676 19.9049 9.07676 18.6386 9.85782 17.8575ZM38.1422 17.8575C38.9232 18.6386 38.9232 19.9049 38.1422 20.686L36.728 22.1002C35.9468 22.8812 34.6806 22.8812 33.8996 22.1002C33.1184 21.3192 33.1184 20.0528 33.8996 19.2718L35.3138 17.8575C36.0948 17.0765 37.361 17.0765 38.1422 17.8575ZM25.4142 4.34556L29.6568 8.5882C30.438 9.36924 30.438 10.6356 29.6568 11.4166C28.8758 12.1977 27.6094 12.1977 26.8284 11.4166L26 10.5882V15.9998C26 17.1043 25.1046 17.9998 24 17.9998C22.8954 17.9998 22 17.1043 22 15.9998V10.5882L21.1716 11.4166C20.3906 12.1977 19.1242 12.1977 18.3431 11.4166C17.5621 10.6356 17.5621 9.36924 18.3431 8.5882L22.5858 4.34556C23.3668 3.5645 24.6332 3.5645 25.4142 4.34556Z" fill="white"/>
</svg>
