<svg width="48" height="48" viewBox="0 0 48 48" fill="none" xmlns="http://www.w3.org/2000/svg">
<path d="M24 19.9998C30.6274 19.9998 36 25.3724 36 31.9998C36 34.1856 35.4148 36.2352 34.3942 37.9998H40C41.1046 37.9998 42 38.8952 42 39.9998C42 41.1044 41.1046 41.9998 40 41.9998H8C6.89544 41.9998 6 41.1044 6 39.9998C6 38.8952 6.89544 37.9998 8 37.9998H13.6062C12.5853 36.2352 12 34.1858 12 31.9998C12 25.3724 17.3726 19.9998 24 19.9998ZM24 23.9998C19.5817 23.9998 16 27.5814 16 31.9998C16 34.2286 16.9103 36.2445 18.3847 37.6973L18.7091 37.9998H29.2918C30.9554 36.5314 32 34.3878 32 31.9998C32 27.5814 28.4182 23.9998 24 23.9998ZM42 29.9998C43.1046 29.9998 44 30.8952 44 31.9998C44 33.0255 43.2279 33.8708 42.2332 33.9863L42 33.9998H40C38.8954 33.9998 38 33.1044 38 31.9998C38 30.9741 38.7721 30.1288 39.7668 30.0133L40 29.9998H42ZM8 29.9998C9.10456 29.9998 10 30.8952 10 31.9998C10 33.0255 9.22791 33.8708 8.23324 33.9863L8 33.9998H6C4.89544 33.9998 4 33.1044 4 31.9998C4 30.9741 4.77209 30.1288 5.76676 30.0133L6 29.9998H8ZM12.6862 17.8575L14.1005 19.2717C14.8815 20.0528 14.8815 21.3192 14.1005 22.1002C13.3194 22.8812 12.0531 22.8812 11.272 22.1002L9.85782 20.686C9.07676 19.9049 9.07676 18.6386 9.85782 17.8575C10.6389 17.0765 11.9052 17.0765 12.6862 17.8575ZM35.3138 17.8575C36.0948 17.0765 37.361 17.0765 38.1422 17.8575C38.8631 18.5785 38.9186 19.713 38.3086 20.4976L38.1422 20.686L36.728 22.1002C35.9468 22.8812 34.6806 22.8812 33.8996 22.1002C33.1785 21.3793 33.123 20.2448 33.7332 19.4602L33.8996 19.2718L35.3138 17.8575ZM24 3.75977C25.0257 3.75977 25.871 4.53185 25.9865 5.52653L26 5.75977V11.1713L26.8284 10.3429C27.6094 9.56187 28.8758 9.56187 29.6568 10.3429C30.3777 11.0639 30.4332 12.1983 29.8232 12.9829L29.6568 13.1713L25.4142 17.414C24.6933 18.1349 23.5588 18.1904 22.7742 17.5803L22.5858 17.414L18.3431 13.1713C17.5621 12.3903 17.5621 11.124 18.3431 10.3429C19.0641 9.62195 20.1985 9.56649 20.9832 10.1765L21.1716 10.3429L22 11.1713V5.75977C22 4.65521 22.8954 3.75977 24 3.75977Z" fill="white"/>
</svg>
