<svg width="32" height="32" viewBox="0 0 32 32" fill="none" xmlns="http://www.w3.org/2000/svg">
<path d="M7.99643 8.93559C7.75556 8.80054 7.45082 8.88632 7.31577 9.12719C7.18072 9.36805 7.2665 9.67279 7.50737 9.80784L7.99643 8.93559ZM11.0794 11.2676L11.2055 11.7515C11.335 11.7177 11.4456 11.6334 11.5125 11.5175C11.5794 11.4016 11.597 11.2637 11.5614 11.1346L11.0794 11.2676ZM7.37399 11.7162C7.10676 11.7858 6.94657 12.0589 7.01618 12.3261C7.08579 12.5933 7.35885 12.7535 7.62608 12.6839L7.37399 11.7162ZM10.6025 7.65925C10.5291 7.39305 10.2537 7.2368 9.98755 7.31024C9.72135 7.38369 9.5651 7.65902 9.63854 7.92522L10.6025 7.65925ZM7.47968 17.7253C7.23882 17.8603 7.15304 18.1651 7.28809 18.4059C7.42314 18.6468 7.72788 18.7326 7.96874 18.5975L7.47968 17.7253ZM11.0787 16.3108L11.5607 16.4436C11.5963 16.3146 11.5786 16.1767 11.5117 16.0608C11.4447 15.9448 11.3341 15.8606 11.2046 15.8269L11.0787 16.3108ZM9.63847 19.6545C9.5651 19.9207 9.72143 20.196 9.98765 20.2694C10.2539 20.3428 10.5292 20.1865 10.6025 19.9202L9.63847 19.6545ZM7.62591 14.8957C7.35867 14.8261 7.08565 14.9864 7.01611 15.2536C6.94657 15.5209 7.10684 15.7939 7.37409 15.8634L7.62591 14.8957ZM15.0489 22.5797C15.0489 22.8558 15.2727 23.0797 15.5489 23.0797C15.825 23.0797 16.0489 22.8558 16.0489 22.5797H15.0489ZM15.5758 18.8332L15.924 18.4744C15.73 18.2861 15.4214 18.2861 15.2275 18.4745L15.5758 18.8332ZM17.8488 21.7361C18.0469 21.9285 18.3635 21.9237 18.5558 21.7256C18.7481 21.5274 18.7434 21.2109 18.5453 21.0186L17.8488 21.7361ZM12.6077 21.0186C12.4096 21.211 12.4049 21.5276 12.5973 21.7257C12.7897 21.9238 13.1063 21.9284 13.3044 21.736L12.6077 21.0186ZM16.1042 5C16.1042 4.72386 15.8804 4.5 15.6042 4.5C15.3281 4.5 15.1042 4.72386 15.1042 5H16.1042ZM15.5773 8.7465L15.2291 9.10529C15.4231 9.2936 15.7317 9.29356 15.9256 9.10519L15.5773 8.7465ZM13.3043 5.84356C13.1062 5.65123 12.7896 5.65595 12.5973 5.8541C12.405 6.05226 12.4097 6.36881 12.6078 6.56113L13.3043 5.84356ZM18.5454 6.56104C18.7435 6.36866 18.7482 6.05211 18.5558 5.85401C18.3634 5.65591 18.0468 5.65127 17.8487 5.84365L18.5454 6.56104ZM23.2838 21.1917L23.5987 20.8033L23.2838 21.1917ZM18.9504 21.1916L18.6355 20.8032H18.6355L18.9504 21.1916ZM21.5179 14.98C21.2418 14.98 21.0179 15.2039 21.0179 15.48C21.0179 15.7561 21.2418 15.98 21.5179 15.98V14.98ZM21.5179 17.2564C21.2418 17.2564 21.0179 17.4803 21.0179 17.7564C21.0179 18.0326 21.2418 18.2564 21.5179 18.2564V17.2564ZM21.5179 19.69C21.2418 19.69 21.0179 19.9138 21.0179 20.19C21.0179 20.4661 21.2418 20.69 21.5179 20.69V19.69ZM11.3141 10.7958L7.99643 8.93559L7.50737 9.80784L10.8251 11.668L11.3141 10.7958ZM10.9534 10.7838L7.37399 11.7162L7.62608 12.6839L11.2055 11.7515L10.9534 10.7838ZM11.5614 11.1346L11.5516 11.0989L10.5876 11.3649L10.5974 11.4006L11.5614 11.1346ZM11.5516 11.0989L10.6025 7.65925L9.63854 7.92522L10.5876 11.3649L11.5516 11.0989ZM10.7974 15.8651L7.47968 17.7253L7.96874 18.5975L11.2864 16.7373L10.7974 15.8651ZM10.5967 16.1779L9.63847 19.6545L10.6025 19.9202L11.5607 16.4436L10.5967 16.1779ZM11.2046 15.8269L11.1678 15.8173L10.916 16.7851L10.9528 16.7947L11.2046 15.8269ZM11.1678 15.8173L7.62591 14.8957L7.37409 15.8634L10.916 16.7851L11.1678 15.8173ZM15.0489 18.8593L15.0489 22.5797H16.0489L16.0489 18.8593L15.0489 18.8593ZM15.2276 19.192L17.8488 21.7361L18.5453 21.0186L15.924 18.4744L15.2276 19.192ZM15.2275 18.4745L15.2005 18.5006L15.8972 19.218L15.9241 19.1919L15.2275 18.4745ZM15.2005 18.5006L12.6077 21.0186L13.3044 21.736L15.8972 19.218L15.2005 18.5006ZM16.1042 8.72035V5H15.1042V8.72035H16.1042ZM15.9255 8.38771L13.3043 5.84356L12.6078 6.56113L15.2291 9.10529L15.9255 8.38771ZM15.9256 9.10519L15.9526 9.07904L15.2559 8.36166L15.229 8.3878L15.9256 9.10519ZM15.9526 9.07904L18.5454 6.56104L17.8487 5.84365L15.2559 8.36166L15.9526 9.07904ZM15.3043 14.2416L15.3319 14.257L15.8209 13.3848L15.7934 13.3693L15.3043 14.2416ZM15.3319 14.257L15.3597 14.2726L15.8488 13.4004L15.8209 13.3848L15.3319 14.257ZM15.0489 13.7434V13.7742H16.0489V13.7434H15.0489ZM15.0489 13.7742V13.8055H16.0489V13.7742H15.0489ZM15.7934 13.3072L11.3141 10.7958L10.8251 11.668L15.3043 14.1795L15.7934 13.3072ZM15.8488 13.3383L15.8209 13.3227L15.3319 14.1949L15.3597 14.2105L15.8488 13.3383ZM15.8209 13.3227L15.7934 13.3072L15.3043 14.1795L15.3319 14.1949L15.8209 13.3227ZM16.1042 13.8365V13.8053H15.1042V13.8365H16.1042ZM16.1042 13.8053V13.7744H15.1042V13.8053H16.1042ZM16.1042 13.7744V13.7432H15.1042V13.7744H16.1042ZM16.1042 13.7432L16.1042 8.72035L15.1042 8.72035L15.1042 13.7432H16.1042ZM15.3597 13.3071L15.3319 13.3227L15.8209 14.1949L15.8488 14.1793L15.3597 13.3071ZM15.3319 13.3227L15.3043 13.3381L15.7934 14.2104L15.8209 14.1949L15.3319 13.3227ZM15.3043 13.3381L10.7974 15.8651L11.2864 16.7373L15.7934 14.2104L15.3043 13.3381ZM15.0489 13.8055V13.8363H16.0489V13.8055H15.0489ZM15.0489 13.8363L15.0489 18.8593L16.0489 18.8593L16.0489 13.8363H15.0489ZM15.7934 14.2725L15.8209 14.257L15.3319 13.3848L15.3043 13.4002L15.7934 14.2725ZM15.8209 14.257L15.8488 14.2414L15.3597 13.3692L15.3319 13.3848L15.8209 14.257ZM24 23.7147C24 25.2393 22.7232 26.5 21.1171 26.5V27.5C23.2476 27.5 25 25.819 25 23.7147H24ZM21.1171 26.5C19.511 26.5 18.2341 25.2393 18.2341 23.7147H17.2341C17.2341 25.819 18.9865 27.5 21.1171 27.5V26.5ZM22.9689 21.58C23.6026 22.0938 24 22.861 24 23.7147H25C25 22.5408 24.4516 21.4948 23.5987 20.8033L22.9689 21.58ZM18.2341 23.7147C18.2341 22.861 18.6316 22.0937 19.2653 21.58L18.6355 20.8032C17.7826 21.4947 17.2341 22.5407 17.2341 23.7147H18.2341ZM19.2653 21.58C19.3385 21.5206 19.4104 21.4768 19.4891 21.4334C19.5516 21.3988 19.6759 21.3357 19.7697 21.2722C19.8818 21.1963 20.0075 21.0863 20.0964 20.9143C20.1828 20.7471 20.2118 20.5653 20.2118 20.3809H19.2118C19.2118 20.4635 19.1984 20.4738 19.208 20.4552C19.2201 20.4317 19.2346 20.4269 19.2091 20.4441C19.1654 20.4737 19.1257 20.4917 19.0059 20.5579C18.9023 20.6151 18.7734 20.6914 18.6355 20.8032L19.2653 21.58ZM21.1172 6.16936C21.4442 6.16936 21.6829 6.24099 21.8248 6.34002C21.9435 6.42279 22.0225 6.54042 22.0225 6.75582H23.0225C23.0225 6.21748 22.7869 5.79188 22.3969 5.51984C22.0303 5.26409 21.5663 5.16936 21.1172 5.16936V6.16936ZM23.5987 20.8033C23.4609 20.6915 23.332 20.6151 23.2284 20.558C23.1086 20.4918 23.0689 20.4738 23.0251 20.4442C22.9997 20.427 23.0142 20.4319 23.0263 20.4553C23.0359 20.4739 23.0225 20.4637 23.0225 20.381H22.0225C22.0225 20.5654 22.0515 20.7472 22.1379 20.9144C22.2268 21.0865 22.3525 21.1964 22.4646 21.2723C22.5584 21.3358 22.6826 21.3989 22.7452 21.4335C22.8239 21.4769 22.8957 21.5207 22.9689 21.58L23.5987 20.8033ZM21.1172 5.16936C20.668 5.16936 20.204 5.26409 19.8374 5.51984C19.4474 5.79188 19.2118 6.21747 19.2118 6.75582H20.2118C20.2118 6.54042 20.2908 6.42278 20.4095 6.34002C20.5514 6.24099 20.7902 6.16936 21.1172 6.16936V5.16936ZM20.2118 11.5022V6.75582H19.2118V11.5022H20.2118ZM15.8488 14.2414L19.9563 11.9384L19.4673 11.0661L15.3597 13.3692L15.8488 14.2414ZM20.2118 20.3809V16.1395H19.2118V20.3809H20.2118ZM20.2118 16.1395V11.5022H19.2118V16.1395H20.2118ZM15.3597 14.2726L19.4673 16.5757L19.9563 15.7034L15.8488 13.4004L15.3597 14.2726ZM22.5225 14.98H21.5179V15.98H22.5225V14.98ZM22.0225 6.75582V15.48H23.0225V6.75582H22.0225ZM22.0225 15.48V17.7564H23.0225V15.48H22.0225ZM22.5225 17.2564H21.5179V18.2564H22.5225V17.2564ZM22.0225 17.7564V20.19H23.0225V17.7564H22.0225ZM22.0225 20.19V20.381H23.0225V20.19H22.0225ZM22.5225 19.69H21.5179V20.69H22.5225V19.69Z" fill="white"/>
</svg>
