<svg width="32" height="32" viewBox="0 0 32 32" fill="none" xmlns="http://www.w3.org/2000/svg">
<path d="M14.4703 27.0039C14.4703 26.7278 14.2464 26.5039 13.9703 26.5039C13.6942 26.5039 13.4703 26.7278 13.4703 27.0039H14.4703ZM12.7599 21.109C12.7599 21.3852 12.9838 21.609 13.2599 21.609C13.536 21.609 13.7599 21.3852 13.7599 21.109H12.7599ZM18.1773 21.109C18.1773 21.3852 18.4012 21.609 18.6773 21.609C18.9535 21.609 19.1773 21.3852 19.1773 21.109H18.1773ZM8.26867 20.9572L7.78718 21.092C7.85299 21.3271 8.07897 21.4803 8.32174 21.4544C8.56451 21.4285 8.75307 21.231 8.76777 20.9873L8.26867 20.9572ZM23.6685 20.9572L23.1694 20.9873C23.1841 21.231 23.3727 21.4285 23.6155 21.4544C23.8582 21.4803 24.0842 21.3271 24.15 21.092L23.6685 20.9572ZM6.59558 8.00003L7.02826 7.74946C6.93886 7.59508 6.77398 7.50003 6.59558 7.50003C6.41719 7.50003 6.2523 7.59508 6.1629 7.74946L6.59558 8.00003ZM5.21583 10.3825L4.78315 10.1319H4.78315L5.21583 10.3825ZM7.97533 10.3825L7.54265 10.6331L7.97533 10.3825ZM25.4044 8.11758L25.8371 7.867C25.7477 7.71262 25.5828 7.61758 25.4044 7.61758C25.226 7.61758 25.0611 7.71262 24.9717 7.867L25.4044 8.11758ZM24.0247 10.5001L24.4573 10.7506L24.0247 10.5001ZM26.7842 10.5001L27.2169 10.2495L26.7842 10.5001ZM16.0479 4L16.4806 3.74942C16.3912 3.59505 16.2263 3.5 16.0479 3.5C15.8695 3.5 15.7046 3.59505 15.6152 3.74942L16.0479 4ZM14.6682 6.38248L14.2355 6.1319V6.1319L14.6682 6.38248ZM17.4277 6.38248L17.8604 6.1319V6.1319L17.4277 6.38248ZM15.4686 27.0039C15.4686 27.2764 15.2466 27.5 14.9694 27.5V28.5C15.796 28.5 16.4686 27.8316 16.4686 27.0039H15.4686ZM14.9694 27.5C14.6923 27.5 14.4703 27.2764 14.4703 27.0039H13.4703C13.4703 27.8316 14.1429 28.5 14.9694 28.5V27.5ZM8.47535 18.8108C8.47535 14.6873 11.8287 11.342 15.9686 11.342V10.342C11.2794 10.342 7.47535 14.1322 7.47535 18.8108H8.47535ZM15.9686 11.342C20.1085 11.342 23.4619 14.6873 23.4619 18.8108H24.4619C24.4619 14.1322 20.6579 10.342 15.9686 10.342V11.342ZM10.762 19.1188C11.8669 19.1188 12.7599 20.0113 12.7599 21.109H13.7599C13.7599 19.4561 12.4162 18.1188 10.762 18.1188V19.1188ZM19.1773 21.109C19.1773 20.0113 20.0704 19.1188 21.1752 19.1188V18.1188C19.521 18.1188 18.1773 19.4561 18.1773 21.109H19.1773ZM8.76777 20.9873C8.83055 19.9464 9.69832 19.1188 10.762 19.1188V18.1188C9.16884 18.1188 7.86417 19.3588 7.76958 20.9271L8.76777 20.9873ZM8.75017 20.8225C8.57119 20.183 8.47535 19.5084 8.47535 18.8108H7.47535C7.47535 19.6004 7.58388 20.3657 7.78718 21.092L8.75017 20.8225ZM21.1752 19.1188C22.2389 19.1188 23.1067 19.9464 23.1694 20.9873L24.1676 20.9271C24.073 19.3588 22.7684 18.1188 21.1752 18.1188V19.1188ZM23.4619 18.8108C23.4619 19.5084 23.366 20.183 23.187 20.8225L24.15 21.092C24.3533 20.3657 24.4619 19.6004 24.4619 18.8108H23.4619ZM13.7599 21.109C13.7599 19.8568 14.7986 19.1188 15.9686 19.1188V18.1188C14.4299 18.1188 12.7599 19.1372 12.7599 21.109H13.7599ZM15.9686 19.1188C17.1387 19.1188 18.1773 19.8568 18.1773 21.109H19.1773C19.1773 19.1372 17.5073 18.1188 15.9686 18.1188V19.1188ZM16.4686 27.0039V18.6188H15.4686V27.0039H16.4686ZM6.1629 8.25061L7.54265 10.6331L8.40801 10.1319L7.02826 7.74946L6.1629 8.25061ZM5.64851 10.6331L7.02826 8.25061L6.1629 7.74946L4.78315 10.1319L5.64851 10.6331ZM6.59558 12.265C5.75166 12.265 5.22966 11.3563 5.64851 10.6331L4.78315 10.1319C3.97555 11.5265 4.9866 13.265 6.59558 13.265V12.265ZM7.54265 10.6331C7.9615 11.3563 7.4395 12.265 6.59558 12.265V13.265C8.20456 13.265 9.21561 11.5265 8.40801 10.1319L7.54265 10.6331ZM24.9717 8.36815L26.3515 10.7506L27.2169 10.2495L25.8371 7.867L24.9717 8.36815ZM24.4573 10.7506L25.8371 8.36815L24.9717 7.867L23.592 10.2495L24.4573 10.7506ZM25.4044 12.3825C24.5605 12.3825 24.0385 11.4739 24.4573 10.7506L23.592 10.2495C22.7844 11.644 23.7954 13.3825 25.4044 13.3825V12.3825ZM26.3515 10.7506C26.7703 11.4739 26.2483 12.3825 25.4044 12.3825V13.3825C27.0134 13.3825 28.0245 11.644 27.2169 10.2495L26.3515 10.7506ZM15.6152 4.25058L16.995 6.63305L17.8604 6.1319L16.4806 3.74942L15.6152 4.25058ZM15.1008 6.63305L16.4806 4.25058L15.6152 3.74942L14.2355 6.1319L15.1008 6.63305ZM16.0479 8.26496C15.204 8.26496 14.682 7.3563 15.1008 6.63305L14.2355 6.1319C13.4279 7.52642 14.4389 9.26496 16.0479 9.26496V8.26496ZM16.995 6.63305C17.4138 7.3563 16.8918 8.26496 16.0479 8.26496V9.26496C17.6569 9.26496 18.668 7.52642 17.8604 6.1319L16.995 6.63305Z" fill="white"/>
</svg>
