<svg width="283" height="290" viewBox="0 0 283 290" fill="none" xmlns="http://www.w3.org/2000/svg">
<g filter="url(#filter0_i_302_105)">
<path fill-rule="evenodd" clip-rule="evenodd" d="M274 109.594C266.024 113.322 257.167 115.397 247.841 115.397C212.794 115.397 184.383 86.0873 184.383 49.9315C184.383 30.0512 192.972 12.2406 206.532 0.23422C204.546 0.0790163 202.54 0 200.516 0C157.153 0 122 36.2649 122 81C122 125.735 157.153 162 200.516 162C234.122 162 262.797 140.219 274 109.594Z" fill="#4107E7"/>
</g>
<path d="M122.523 241.551L127 212H155L149.888 233.3C149.435 235.186 150.865 237 152.805 237H155.424C157.814 237 159.244 239.659 157.927 241.653L126 290L136.994 248.773C137.502 246.868 136.066 245 134.095 245H125.489C123.653 245 122.248 243.366 122.523 241.551Z" fill="url(#paint0_linear_302_105)"/>
<mask id="mask0_302_105" style="mask-type:alpha" maskUnits="userSpaceOnUse" x="32" y="52" width="219" height="160">
<path fill-rule="evenodd" clip-rule="evenodd" d="M78 211.989C77.6675 211.996 77.3342 212 77 212C52.1472 212 32 191.853 32 167C32 150.134 41.2787 135.435 55.0099 127.73C55.0033 127.321 55 126.911 55 126.5C55 85.3548 88.3548 52 129.5 52C164.991 52 194.686 76.8176 202.177 110.046C229.334 111.186 251 133.563 251 161C251 189.167 228.167 212 200 212C198.654 212 197.32 211.948 196 211.845V212H78V211.989Z" fill="url(#paint1_radial_302_105)" fill-opacity="0.77"/>
</mask>
<g mask="url(#mask0_302_105)">
<g filter="url(#filter1_bdi_302_105)">
<path fill-rule="evenodd" clip-rule="evenodd" d="M200 212H78V211.989C77.6675 211.996 77.3342 212 77 212C52.1472 212 32 191.853 32 167C32 150.134 41.2787 135.435 55.0099 127.73C55.0033 127.321 55 126.911 55 126.5C55 85.3548 88.3548 52 129.5 52C164.991 52 194.686 76.8177 202.177 110.046C229.334 111.186 251 133.563 251 161C251 187.82 230.297 209.805 204 211.845V212H200Z" fill="url(#paint2_radial_302_105)" fill-opacity="0.77"/>
</g>
<g style="mix-blend-mode:soft-light" filter="url(#filter2_di_302_105)">
<circle cx="77" cy="167" r="45" fill="#848484"/>
</g>
<g filter="url(#filter3_f_302_105)">
<path d="M139 174C112.544 193.479 88.5142 207.005 73 212H210C193.343 212 158.189 185.55 139 174Z" fill="url(#paint3_radial_302_105)"/>
</g>
<g style="mix-blend-mode:screen" filter="url(#filter4_f_302_105)">
<path d="M145 157C128.284 166.573 104.802 211.545 95 214H195C184.475 214 157.124 162.676 145 157Z" fill="url(#paint4_linear_302_105)"/>
</g>
<g style="mix-blend-mode:screen" filter="url(#filter5_f_302_105)">
<path d="M140 169C128.781 175.402 112.579 212.358 106 214L173 212C165.936 212 148.137 172.796 140 169Z" fill="url(#paint5_linear_302_105)"/>
</g>
</g>
<defs>
<filter id="filter0_i_302_105" x="112" y="0" width="162" height="175" filterUnits="userSpaceOnUse" color-interpolation-filters="sRGB">
<feFlood flood-opacity="0" result="BackgroundImageFix"/>
<feBlend mode="normal" in="SourceGraphic" in2="BackgroundImageFix" result="shape"/>
<feColorMatrix in="SourceAlpha" type="matrix" values="0 0 0 0 0 0 0 0 0 0 0 0 0 0 0 0 0 0 127 0" result="hardAlpha"/>
<feOffset dx="-10" dy="13"/>
<feGaussianBlur stdDeviation="12"/>
<feComposite in2="hardAlpha" operator="arithmetic" k2="-1" k3="1"/>
<feColorMatrix type="matrix" values="0 0 0 0 0.98 0 0 0 0 0 0 0 0 0 1 0 0 0 0.9 0"/>
<feBlend mode="normal" in2="shape" result="effect1_innerShadow_302_105"/>
</filter>
<filter id="filter1_bdi_302_105" x="0" y="36" width="283" height="224" filterUnits="userSpaceOnUse" color-interpolation-filters="sRGB">
<feFlood flood-opacity="0" result="BackgroundImageFix"/>
<feGaussianBlur in="BackgroundImageFix" stdDeviation="8"/>
<feComposite in2="SourceAlpha" operator="in" result="effect1_backgroundBlur_302_105"/>
<feColorMatrix in="SourceAlpha" type="matrix" values="0 0 0 0 0 0 0 0 0 0 0 0 0 0 0 0 0 0 127 0" result="hardAlpha"/>
<feOffset dy="16"/>
<feGaussianBlur stdDeviation="16"/>
<feColorMatrix type="matrix" values="0 0 0 0 0.385412 0 0 0 0 0.0627451 0 0 0 0 0.796078 0 0 0 0.12 0"/>
<feBlend mode="normal" in2="effect1_backgroundBlur_302_105" result="effect2_dropShadow_302_105"/>
<feBlend mode="normal" in="SourceGraphic" in2="effect2_dropShadow_302_105" result="shape"/>
<feColorMatrix in="SourceAlpha" type="matrix" values="0 0 0 0 0 0 0 0 0 0 0 0 0 0 0 0 0 0 127 0" result="hardAlpha"/>
<feOffset dx="-2" dy="2"/>
<feGaussianBlur stdDeviation="7"/>
<feComposite in2="hardAlpha" operator="arithmetic" k2="-1" k3="1"/>
<feColorMatrix type="matrix" values="0 0 0 0 0.209569 0 0 0 0 0.0630035 0 0 0 0 0.795833 0 0 0 0.3 0"/>
<feBlend mode="normal" in2="shape" result="effect3_innerShadow_302_105"/>
</filter>
<filter id="filter2_di_302_105" x="24" y="106" width="120" height="118" filterUnits="userSpaceOnUse" color-interpolation-filters="sRGB">
<feFlood flood-opacity="0" result="BackgroundImageFix"/>
<feColorMatrix in="SourceAlpha" type="matrix" values="0 0 0 0 0 0 0 0 0 0 0 0 0 0 0 0 0 0 127 0" result="hardAlpha"/>
<feOffset dx="-2" dy="-10"/>
<feGaussianBlur stdDeviation="3"/>
<feColorMatrix type="matrix" values="0 0 0 0 0 0 0 0 0 0 0 0 0 0 0 0 0 0 0.22 0"/>
<feBlend mode="normal" in2="BackgroundImageFix" result="effect1_dropShadow_302_105"/>
<feBlend mode="normal" in="SourceGraphic" in2="effect1_dropShadow_302_105" result="shape"/>
<feColorMatrix in="SourceAlpha" type="matrix" values="0 0 0 0 0 0 0 0 0 0 0 0 0 0 0 0 0 0 127 0" result="hardAlpha"/>
<feOffset dx="22" dy="12"/>
<feGaussianBlur stdDeviation="11"/>
<feComposite in2="hardAlpha" operator="arithmetic" k2="-1" k3="1"/>
<feColorMatrix type="matrix" values="0 0 0 0 1 0 0 0 0 1 0 0 0 0 1 0 0 0 0.74 0"/>
<feBlend mode="normal" in2="shape" result="effect2_innerShadow_302_105"/>
</filter>
<filter id="filter3_f_302_105" x="65" y="166" width="153" height="54" filterUnits="userSpaceOnUse" color-interpolation-filters="sRGB">
<feFlood flood-opacity="0" result="BackgroundImageFix"/>
<feBlend mode="normal" in="SourceGraphic" in2="BackgroundImageFix" result="shape"/>
<feGaussianBlur stdDeviation="4" result="effect1_foregroundBlur_302_105"/>
</filter>
<filter id="filter4_f_302_105" x="91" y="153" width="108" height="65" filterUnits="userSpaceOnUse" color-interpolation-filters="sRGB">
<feFlood flood-opacity="0" result="BackgroundImageFix"/>
<feBlend mode="normal" in="SourceGraphic" in2="BackgroundImageFix" result="shape"/>
<feGaussianBlur stdDeviation="2" result="effect1_foregroundBlur_302_105"/>
</filter>
<filter id="filter5_f_302_105" x="102" y="165" width="75" height="53" filterUnits="userSpaceOnUse" color-interpolation-filters="sRGB">
<feFlood flood-opacity="0" result="BackgroundImageFix"/>
<feBlend mode="normal" in="SourceGraphic" in2="BackgroundImageFix" result="shape"/>
<feGaussianBlur stdDeviation="2" result="effect1_foregroundBlur_302_105"/>
</filter>
<linearGradient id="paint0_linear_302_105" x1="141" y1="197" x2="131.5" y2="261" gradientUnits="userSpaceOnUse">
<stop stop-color="#D601FA"/>
<stop offset="1" stop-color="#FAC301"/>
</linearGradient>
<radialGradient id="paint1_radial_302_105" cx="0" cy="0" r="1" gradientUnits="userSpaceOnUse" gradientTransform="translate(109.164 86.1144) rotate(90.6693) scale(125.829 143.587)">
<stop stop-color="white"/>
<stop offset="1" stop-color="#99CEFF"/>
</radialGradient>
<radialGradient id="paint2_radial_302_105" cx="0" cy="0" r="1" gradientUnits="userSpaceOnUse" gradientTransform="translate(109.164 86.1144) rotate(90.6693) scale(125.829 143.587)">
<stop offset="0.015625" stop-color="#31187A"/>
<stop offset="1" stop-color="#07020A"/>
</radialGradient>
<radialGradient id="paint3_radial_302_105" cx="0" cy="0" r="1" gradientUnits="userSpaceOnUse" gradientTransform="translate(151.889 207.786) rotate(-90) scale(21.5393 111.274)">
<stop stop-color="#D601FA"/>
<stop offset="1" stop-color="#D601FA" stop-opacity="0"/>
</radialGradient>
<linearGradient id="paint4_linear_302_105" x1="147.688" y1="212.888" x2="147.688" y2="205.542" gradientUnits="userSpaceOnUse">
<stop stop-color="#D601FA"/>
<stop offset="1" stop-color="#D601FA" stop-opacity="0"/>
</linearGradient>
<linearGradient id="paint5_linear_302_105" x1="141.361" y1="213.224" x2="141.361" y2="203.077" gradientUnits="userSpaceOnUse">
<stop stop-color="#D601FA"/>
<stop offset="1" stop-color="#D601FA" stop-opacity="0"/>
</linearGradient>
</defs>
</svg>
